<?xml version="1.0" encoding="UTF-8"?>
<!DOCTYPE svg PUBLIC "-//W3C//DTD SVG 1.1//EN" "http://www.w3.org/Graphics/SVG/1.1/DTD/svg11.dtd">
<!-- Creator: CorelDRAW 2018 (64-Bit) -->
<svg xmlns="http://www.w3.org/2000/svg" xml:space="preserve" width="499px" height="176px" version="1.1" style="shape-rendering:geometricPrecision; text-rendering:geometricPrecision; image-rendering:optimizeQuality; fill-rule:evenodd; clip-rule:evenodd"
viewBox="0 0 10.49 3.7"
 xmlns:xlink="http://www.w3.org/1999/xlink">
 <defs>
  <style type="text/css">
   <![CDATA[
    .fil0 {fill:none}
    .fil1 {fill:#F6BB3C}
    .fil2 {fill:white;fill-rule:nonzero}
   ]]>
  </style>
 </defs>
 <g id="Слой_x0020_1">
  <metadata id="CorelCorpID_0Corel-Layer"/>
  <rect class="fil0" width="10.49" height="3.7"/>
  <path class="fil1" d="M0 0.79c-0.02,-0.44 0.33,-0.8 0.76,-0.79l8.99 0.11c0.41,0.01 0.74,0.34 0.74,0.76l0 2.83c-0.91,-0.04 -2.04,-0.22 -2.5,-0.34 -1.4,-0.37 -3.18,0.34 -4.68,0.34 -1.36,0 -2.33,-0.1 -3.19,-0.2l-0.12 -2.71z"/>
  <path class="fil2" d="M5.57 3.6c0.88,-0.15 1.75,-0.26 2.52,-0.06 0.05,0.01 0.1,0.02 0.15,0.03l0 0.13c-0.07,-0.01 -0.13,-0.03 -0.18,-0.04 -0.13,-0.04 -0.27,-0.06 -0.41,-0.08 -0.65,-0.09 -1.36,0 -2.08,0.12l0 -0.1z"/>
 </g>
</svg>
