<?xml version="1.0" encoding="UTF-8"?>
<!DOCTYPE svg PUBLIC "-//W3C//DTD SVG 1.1//EN" "http://www.w3.org/Graphics/SVG/1.1/DTD/svg11.dtd">
<!-- Creator: CorelDRAW 2018 (64-Bit) -->
<svg xmlns="http://www.w3.org/2000/svg" xml:space="preserve" width="499px" height="176px" version="1.1" style="shape-rendering:geometricPrecision; text-rendering:geometricPrecision; image-rendering:optimizeQuality; fill-rule:evenodd; clip-rule:evenodd"
viewBox="0 0 9.63 3.4"
 xmlns:xlink="http://www.w3.org/1999/xlink">
 <defs>
  <style type="text/css">
   <![CDATA[
    .fil0 {fill:none}
    .fil1 {fill:#3A9C74}
    .fil2 {fill:white}
   ]]>
  </style>
 </defs>
 <g id="Слой_x0020_1">
  <metadata id="CorelCorpID_0Corel-Layer"/>
  <rect class="fil0" width="9.63" height="3.4"/>
  <path class="fil1" d="M0 0.72c-0.02,-0.39 0.3,-0.72 0.7,-0.72l8.25 0.1c0.38,0.01 0.68,0.32 0.68,0.7l0 2.14c-0.11,-0.01 -0.22,-0.01 -0.34,-0.01 -0.56,0 -3,0.47 -3.49,0.47 -0.49,0 -1.96,-0.28 -2.61,-0.32 -0.64,-0.04 -1.32,0.13 -2.33,0.23 -0.23,0.03 -0.49,0.01 -0.75,-0.03l-0.11 -2.56z"/>
  <path class="fil2" d="M9.63 3.09l0 0.11c-0.11,0 -0.22,-0.01 -0.34,-0.01 -0.25,0 -0.9,0.1 -1.57,0.21l0 -0.1c0.7,-0.11 1.38,-0.21 1.65,-0.21 0.09,0 0.18,0 0.26,0zm-5.91 0.31c-0.2,-0.03 -0.39,-0.05 -0.53,-0.06 -0.3,-0.02 -0.61,0.01 -0.95,0.06l0 -0.1c0.37,-0.05 0.71,-0.08 1.03,-0.06 0.13,0.01 0.28,0.02 0.45,0.04l0 0.12z"/>
 </g>
</svg>
