<?xml version="1.0" encoding="UTF-8"?>
<!DOCTYPE svg PUBLIC "-//W3C//DTD SVG 1.1//EN" "http://www.w3.org/Graphics/SVG/1.1/DTD/svg11.dtd">
<!-- Creator: CorelDRAW 2018 (64-Bit) -->
<svg xmlns="http://www.w3.org/2000/svg" xml:space="preserve" width="500px" height="176px" version="1.1" style="shape-rendering:geometricPrecision; text-rendering:geometricPrecision; image-rendering:optimizeQuality; fill-rule:evenodd; clip-rule:evenodd"
viewBox="0 0 11.87 4.18"
 xmlns:xlink="http://www.w3.org/1999/xlink">
 <defs>
  <style type="text/css">
   <![CDATA[
    .fil0 {fill:none}
    .fil2 {fill:#FEFEFE}
    .fil1 {fill:#F3AAA2}
   ]]>
  </style>
 </defs>
 <g id="Слой_x0020_1">
  <metadata id="CorelCorpID_0Corel-Layer"/>
  <rect class="fil0" width="11.84" height="4.18"/>
  <path class="fil1" d="M0 0.89c-0.02,-0.49 0.37,-0.9 0.86,-0.89l10.17 0.13c0.47,0 0.84,0.38 0.84,0.85l0 2.76c-1.05,0.17 -1.78,0.44 -3.16,0.44 -1.92,0 -3.92,-0.47 -6.02,-0.47 -0.93,0 -1.71,0.09 -2.56,0.19l-0.13 -3.01z"/>
  <path class="fil2" d="M11.87 3.95l0 0.14c-0.16,0.03 -0.32,0.06 -0.47,0.09l0 -0.14c0.15,-0.03 0.3,-0.06 0.46,-0.09 0,0 0.01,0 0.01,0zm-7.13 0.23c-0.68,-0.07 -1.36,-0.12 -2.05,-0.12 -0.69,0 -1.3,0.05 -1.91,0.12l0 -0.14c0.2,-0.03 0.4,-0.05 0.6,-0.06 0.41,-0.04 0.84,-0.06 1.31,-0.06 0.69,0 1.37,0.05 2.05,0.12l0 0.14z"/>
 </g>
</svg>
