<?xml version="1.0" encoding="UTF-8"?>
<!DOCTYPE svg PUBLIC "-//W3C//DTD SVG 1.1//EN" "http://www.w3.org/Graphics/SVG/1.1/DTD/svg11.dtd">
<!-- Creator: CorelDRAW 2018 (64-Bit) -->
<svg xmlns="http://www.w3.org/2000/svg" xml:space="preserve" width="499px" height="176px" version="1.1" style="shape-rendering:geometricPrecision; text-rendering:geometricPrecision; image-rendering:optimizeQuality; fill-rule:evenodd; clip-rule:evenodd"
viewBox="0 0 12.46 4.39"
 xmlns:xlink="http://www.w3.org/1999/xlink">
 <defs>
  <style type="text/css">
   <![CDATA[
    .fil0 {fill:none}
    .fil2 {fill:#FEFEFE}
    .fil1 {fill:#0765A3}
   ]]>
  </style>
 </defs>
 <g id="Слой_x0020_1">
  <metadata id="CorelCorpID_0Corel-Layer"/>
  <rect class="fil0" x="0.01" width="12.45" height="4.39"/>
  <path class="fil1" d="M0 0.93c-0.02,-0.51 0.39,-0.94 0.91,-0.93l10.66 0.13c0.48,0.01 0.88,0.41 0.88,0.9l0 3.26c-0.15,0.01 -0.3,0.01 -0.44,-0.01 -1.3,-0.13 -2.18,-0.35 -3.01,-0.3 -0.84,0.05 -2.74,0.41 -3.38,0.41 -0.63,0 -3.78,-0.6 -4.51,-0.6 -0.36,0 -0.69,0.01 -0.98,0.03l-0.13 -2.89z"/>
  <path class="fil2" d="M9.9 4.39c-0.32,-0.03 -0.61,-0.05 -0.9,-0.03 -0.1,0.01 -0.22,0.02 -0.35,0.03l0 -0.15c0.13,-0.01 0.24,-0.02 0.34,-0.03 0.29,-0.02 0.59,0 0.91,0.03l0 0.15zm-7.01 0c-0.77,-0.12 -1.48,-0.22 -1.78,-0.22 -0.36,0 -0.69,0.01 -0.98,0.04l-0.01 -0.15 0 0c0.15,-0.01 0.3,-0.02 0.47,-0.03 0.17,0 0.34,-0.01 0.52,-0.01 0.3,0 1.01,0.1 1.78,0.22l0 0.15z"/>
 </g>
</svg>
