<?xml version="1.0" encoding="UTF-8"?>
<!DOCTYPE svg PUBLIC "-//W3C//DTD SVG 1.1//EN" "http://www.w3.org/Graphics/SVG/1.1/DTD/svg11.dtd">
<!-- Creator: CorelDRAW 2018 (64-Bit) -->
<svg xmlns="http://www.w3.org/2000/svg" xml:space="preserve" width="499px" height="176px" version="1.1" style="shape-rendering:geometricPrecision; text-rendering:geometricPrecision; image-rendering:optimizeQuality; fill-rule:evenodd; clip-rule:evenodd"
viewBox="0 0 10.04 3.54"
 xmlns:xlink="http://www.w3.org/1999/xlink">
 <defs>
  <style type="text/css">
   <![CDATA[
    .fil0 {fill:none}
    .fil1 {fill:#98C0E5}
    .fil2 {fill:white;fill-rule:nonzero}
   ]]>
  </style>
 </defs>
 <g id="Слой_x0020_1">
  <metadata id="CorelCorpID_0Corel-Layer"/>
  <rect class="fil0" width="10.04" height="3.54"/>
  <path class="fil1" d="M0 0.75c-0.02,-0.41 0.32,-0.76 0.73,-0.75l8.6 0.11c0.4,0 0.71,0.32 0.71,0.72l0 2.43c-0.55,-0.07 -1.09,-0.12 -1.71,-0.12 -1.78,0 -3.47,0.4 -5.1,0.4 -1.35,0 -1.97,-0.3 -3.13,-0.43l-0.1 -2.36z"/>
  <path class="fil2" d="M0.1 3.27c0.36,0.04 0.67,0.09 0.97,0.15l0 0.12c-0.23,-0.04 -0.48,-0.09 -0.75,-0.12 -0.07,-0.01 -0.14,-0.02 -0.22,-0.03l0 -0.12zm6.3 0.17c0.66,-0.07 1.33,-0.13 2.01,-0.13 0.59,0 1.11,0.05 1.63,0.1l0 0.12c-0.55,-0.06 -1.09,-0.11 -1.71,-0.11 -0.65,0 -1.3,0.05 -1.93,0.12l0 -0.1z"/>
 </g>
</svg>
