<?xml version="1.0" encoding="UTF-8"?>
<!DOCTYPE svg PUBLIC "-//W3C//DTD SVG 1.1//EN" "http://www.w3.org/Graphics/SVG/1.1/DTD/svg11.dtd">
<!-- Creator: CorelDRAW 2018 (64-Bit) -->
<svg xmlns="http://www.w3.org/2000/svg" xml:space="preserve" width="500px" height="176px" version="1.1" style="shape-rendering:geometricPrecision; text-rendering:geometricPrecision; image-rendering:optimizeQuality; fill-rule:evenodd; clip-rule:evenodd"
viewBox="0 0 11.3 3.98"
 xmlns:xlink="http://www.w3.org/1999/xlink">
 <defs>
  <style type="text/css">
   <![CDATA[
    .fil2 {fill:none}
    .fil1 {fill:#FEFEFE}
    .fil0 {fill:#ED5E3D}
   ]]>
  </style>
 </defs>
 <g id="Слой_x0020_1">
  <metadata id="CorelCorpID_0Corel-Layer"/>
  <path class="fil0" d="M0 0.85c-0.02,-0.47 0.35,-0.86 0.82,-0.85l9.68 0.12c0.44,0.01 0.8,0.37 0.8,0.81l0 2.89c-0.8,0.08 -1.72,0.16 -2.92,0.16 -1.61,0 -3.51,-0.76 -5.03,-0.37 -0.54,0.14 -1.98,0.37 -3.01,0.37l-0.2 0 -0.14 -3.13z"/>
  <path class="fil1" d="M5.96 3.98c-0.43,-0.08 -0.86,-0.14 -1.28,-0.16l-0.04 -0.01 -0.01 0 -0.01 0c-0.02,0 -0.04,0 -0.07,0l0 0c-0.16,-0.01 -0.31,-0.01 -0.46,0l-0.01 0c-0.02,0 -0.04,0 -0.06,0.01l-0.02 0c-0.02,0 -0.03,0 -0.04,0 -0.21,0.02 -0.41,0.05 -0.61,0.1 -0.07,0.02 -0.15,0.04 -0.24,0.06l0 -0.14c0.09,-0.02 0.16,-0.03 0.22,-0.05 0.81,-0.21 1.71,-0.1 2.63,0.05l0 0.14z"/>
  <rect class="fil2" width="11.27" height="3.98"/>
 </g>
</svg>
